HIERARCHY
ROOT root
{
	OFFSET 0.000000 0.000000 0.000000
	CHANNELS 6 Xposition Yposition Zposition Zrotation Yrotation Xrotation
	JOINT lhip
	{
		OFFSET 0.058581 -0.082280 -0.017664
		CHANNELS 3 Zrotation Yrotation Xrotation
		JOINT lknee
		{
			OFFSET 0.043451 -0.386469 0.008037
			CHANNELS 3 Zrotation Yrotation Xrotation
			JOINT lankle
			{
				OFFSET -0.014790 -0.426874 -0.037428
				CHANNELS 3 Zrotation Yrotation Xrotation
				JOINT ltoe
				{
					OFFSET 0.041054 -0.060286 0.122042
					CHANNELS 3 Zrotation Yrotation Xrotation
					End Site
					{
						OFFSET 0.000000 0.000000 0.000000
					}
				}
			}
		}
	}
	JOINT rhip
	{
		OFFSET -0.060310 -0.090513 -0.013543
		CHANNELS 3 Zrotation Yrotation Xrotation
		JOINT rknee
		{
			OFFSET -0.043257 -0.383688 -0.004843
			CHANNELS 3 Zrotation Yrotation Xrotation
			JOINT rankle
			{
				OFFSET 0.019056 -0.420046 -0.034562
				CHANNELS 3 Zrotation Yrotation Xrotation
				JOINT rtoe
				{
					OFFSET -0.034840 -0.062106 0.130323
					CHANNELS 3 Zrotation Yrotation Xrotation
					End Site
					{
						OFFSET 0.000000 0.000000 0.000000
					}
				}
			}
		}
	}
	JOINT lowerback
	{
		OFFSET 0.004439 0.124404 -0.038385
		CHANNELS 3 Zrotation Yrotation Xrotation
		JOINT upperback
		{
			OFFSET 0.004488 0.137956 0.026820
			CHANNELS 3 Zrotation Yrotation Xrotation
			JOINT chest
			{
				OFFSET -0.002265 0.056032 0.002855
				CHANNELS 3 Zrotation Yrotation Xrotation
				JOINT lowerneck
				{
					OFFSET -0.013390 0.211636 -0.033468
					CHANNELS 3 Zrotation Yrotation Xrotation
					JOINT upperneck
					{
						OFFSET 0.010113 0.088937 0.050410
						CHANNELS 3 Zrotation Yrotation Xrotation
						End Site
						{
							OFFSET 0.000000 0.000000 0.000000
						}
					}
				}
				JOINT lclavicle
				{
					OFFSET 0.071702 0.114000 -0.018898
					CHANNELS 3 Zrotation Yrotation Xrotation
					JOINT lshoulder
					{
						OFFSET 0.122921 0.045205 -0.019046
						CHANNELS 3 Zrotation Yrotation Xrotation
						JOINT lelbow
						{
							OFFSET 0.255332 -0.015649 -0.022946
							CHANNELS 3 Zrotation Yrotation Xrotation
							JOINT lwrist
							{
								OFFSET 0.265709 0.012698 -0.007375
								CHANNELS 3 Zrotation Yrotation Xrotation
								End Site
								{
									OFFSET 0.000000 0.000000 0.000000
								}
							}
						}
					}
				}
				JOINT rclavicle
				{
					OFFSET -0.082954 0.112472 -0.023707
					CHANNELS 3 Zrotation Yrotation Xrotation
					JOINT rshoulder
					{
						OFFSET -0.113228 0.046853 -0.008472
						CHANNELS 3 Zrotation Yrotation Xrotation
						JOINT relbow
						{
							OFFSET -0.260127 -0.014369 -0.031269
							CHANNELS 3 Zrotation Yrotation Xrotation
							JOINT rwrist
							{
								OFFSET -0.269108 0.006794 -0.006027
								CHANNELS 3 Zrotation Yrotation Xrotation
								End Site
								{
									OFFSET 0.000000 0.000000 0.000000
								}
							}
						}
					}
				}
			}
		}
	}
}
MOTION
Frames: 5
Frame Time: 0.033333
0.345904 0.171673 0.995461 98.229341 -1.175389 94.609647 7.347031 2.741302 -2.363718 -4.158402 -0.904689 -5.791942 -3.149320 2.717937 2.382500 0.000000 -0.000000 0.000000 -7.166732 -8.365318 -1.747999 1.842019 -6.679436 -0.379377 5.458111 -6.625191 -3.596263 0.000000 -0.000000 0.000000 -0.519049 2.231476 5.252274 -0.338280 -3.532535 4.597408 2.123291 2.484357 -2.277531 -4.330141 -5.580771 -9.733921 9.336011 -4.440692 -3.912661 -7.391165 -28.585004 -7.258104 -62.033174 -48.105799 25.163930 20.283016 -54.632083 -13.700277 17.885190 -6.255401 -23.082652 6.680771 23.769922 2.365165 23.504502 23.857423 1.668307 -31.186965 69.040969 -24.964419 1.240079 12.202281 -31.238504 
0.346066 0.171614 0.995340 97.862086 -1.118879 94.564746 7.449859 2.882185 -2.206504 -4.226052 -0.846930 -5.761833 -3.125345 2.809372 2.270528 0.000000 -0.000000 0.000000 -7.108765 -8.165174 -1.717700 1.817971 -6.482585 -0.459705 5.531400 -6.661293 -3.571947 0.000000 -0.000000 0.000000 -0.609872 2.124462 5.075216 -0.328412 -3.605818 4.695638 2.082400 2.281593 -2.275252 -4.112081 -5.557985 -9.647854 9.291030 -3.858609 -3.683916 -7.833432 -28.065432 -6.887174 -60.991859 -47.158495 24.732656 20.484383 -56.593778 -13.752032 17.971866 -6.522747 -22.370019 6.314740 23.027725 2.123606 23.135334 22.646392 2.438488 -38.838994 73.313619 -32.909240 1.846722 13.085455 -34.145340 
0.346108 0.171518 0.995246 97.364864 -1.064406 94.525955 7.541398 3.006048 -2.017308 -4.267370 -0.742384 -5.765712 -3.129819 2.966106 2.132137 0.000000 -0.000000 0.000000 -7.050570 -7.922884 -1.772466 1.782138 -6.205181 -0.454826 5.561995 -6.689681 -3.571904 0.000000 -0.000000 0.000000 -0.655822 1.981007 4.914131 -0.355919 -3.651157 4.751750 2.013279 2.101510 -2.263370 -3.821208 -5.354835 -9.564918 9.143917 -3.269207 -3.349381 -8.265002 -27.539381 -6.458949 -59.627528 -45.991315 24.019572 20.817125 -58.899704 -13.890829 18.085059 -6.793191 -22.085907 5.854665 22.558512 1.792292 22.691611 22.090397 2.897879 -49.372678 76.356326 -43.802772 1.838838 13.708883 -36.534695 
0.346362 0.171335 0.995219 96.770107 -1.023404 94.489946 7.621019 3.210071 -1.794336 -4.358594 -0.608573 -5.795827 -3.146053 3.151936 2.017369 0.000000 -0.000000 0.000000 -7.027820 -7.724882 -1.824391 1.768828 -5.891274 -0.460838 5.569444 -6.635090 -3.536805 0.000000 -0.000000 0.000000 -0.648642 1.848682 4.757452 -0.438513 -3.659482 4.850758 1.930569 1.996060 -2.329928 -3.546966 -5.086192 -9.321346 9.046817 -2.635987 -3.332349 -8.608357 -26.997283 -6.075306 -58.295051 -44.607683 23.387833 21.558702 -61.484897 -14.361181 18.468952 -6.672447 -22.342566 5.388861 22.277363 1.446693 22.338757 22.073058 2.966950 -60.988279 77.788707 -55.704229 1.347523 13.842987 -37.984380 
0.346334 0.171178 0.995187 96.219487 -0.992914 94.465156 7.666706 3.400275 -1.594422 -4.423245 -0.443189 -5.866788 -3.135153 3.329462 1.965561 0.000000 -0.000000 0.000000 -7.002720 -7.570009 -1.918825 1.721477 -5.582808 -0.442759 5.609211 -6.551665 -3.474302 0.000000 -0.000000 0.000000 -0.641590 1.705727 4.644224 -0.520979 -3.649326 4.875802 1.824994 1.939050 -2.358891 -3.143856 -4.844425 -9.223647 8.910725 -2.248221 -3.158484 -8.836299 -26.450230 -5.830693 -57.422020 -43.418375 23.024361 22.143145 -63.708609 -14.517191 19.148418 -6.484363 -22.653771 4.980589 22.135381 1.090407 22.161300 22.664911 2.677087 -69.197501 77.872489 -64.104425 0.508693 13.788072 -38.860725 
